<?xml version="1.0" standalone="no"?>
<!DOCTYPE svg PUBLIC "-//W3C//DTD SVG 1.1//EN" "http://www.w3.org/Graphics/SVG/1.1/DTD/svg11.dtd">
<svg xmlns="http://www.w3.org/2000/svg" xmlns:xlink="http://www.w3.org/1999/xlink" version="1.1" id="Capa_1" x="0px" y="0px" width="161" height="48.125" viewBox="0 0 161 48.125" enable-background="new 0 0 161 48.125" xml:space="preserve">
<path fill="#FAF4EC" d="M109.123,27.354c-0.113-0.041-0.229-0.081-0.355-0.126c0.111,0.418,0.689,0.291,0.853,0.741  c-0.69-0.194-1.142-0.629-1.611-1.03c-0.021,0.028-0.045,0.058-0.067,0.087c0.217,0.196,0.434,0.393,0.649,0.588  c-0.073,0.068-0.149,0.141-0.266,0.246c0.297,0.18,0.555,0.337,0.813,0.494c-0.007,0.01-0.009,0.021-0.015,0.031  c-0.172-0.059-0.347-0.117-0.517-0.176c-0.014,0.026-0.024,0.057-0.039,0.084c0.263,0.127,0.529,0.24,0.783,0.381  c0.494,0.271,1.062,0.277,1.582,0.455c0.15,0.052,0.349,0.031,0.504-0.014c0.188-0.056,0.357-0.174,0.617-0.31  c-0.232-0.019-0.371-0.031-0.512-0.043c-0.008-0.023-0.016-0.05-0.023-0.072c0.234-0.042,0.469-0.086,0.703-0.127  c0-0.035,0-0.071,0-0.106c-0.092-0.019-0.184-0.06-0.272-0.055c-0.371,0.028-0.742,0.1-1.115,0.098c-0.194,0-0.396-0.104-0.58-0.191  c-0.168-0.083-0.313-0.208-0.465-0.346c0.293,0.244,0.744-0.018,0.994,0.326c0.133,0,0.264-0.008,0.391,0.002  c0.646,0.051,1.298,0.146,1.886-0.313h-1.863c-0.002-0.029-0.006-0.06-0.008-0.088c0.043-0.015,0.088-0.036,0.131-0.037  c0.541-0.022,1.084-0.062,1.623-0.049c0.147,0.003,0.399-0.229,0.488,0.157c0.039,0.166,0.539,0.063,0.596-0.172  c0.074-0.313,0.309-0.268,0.5-0.317c0.326-0.087,0.66-0.146,0.988-0.22c0.02-0.004,0.043-0.026,0.057-0.021  c0.51,0.161,0.807-0.309,1.227-0.424c0.43-0.119,0.818-0.385,1.242-0.536c0.291-0.104,0.615-0.114,0.922-0.181  c0.238-0.053,0.486-0.099,0.703-0.201c0.105-0.051,0.148-0.225,0.219-0.342c-0.018-0.022-0.039-0.047-0.059-0.068  c0.377-0.1,0.752-0.2,1.129-0.298c0.045-0.011,0.127-0.017,0.135,0.004c0.102,0.208,0.209,0.088,0.316,0.013  c0.049-0.033,0.092-0.105,0.141-0.109c0.602-0.051,0.652-0.682,1.059-0.881c0.263-0.088,0.549-0.132,0.775-0.272  c0.207-0.129,0.643,0,0.582-0.534c0.172,0.159,0.303,0.275,0.469,0.43c0.217-0.156,0.473-0.353,0.74-0.533  c0.16-0.108,0.332-0.277,0.502-0.281c0.445-0.016,0.646-0.406,0.992-0.559c0.191-0.086,0.336-0.262,0.629-0.153  c0.166,0.061,0.453-0.146,0.66-0.272c0.641-0.393,1.27-0.806,1.904-1.207c0.076-0.049,0.164-0.1,0.25-0.107  c0.465-0.047,0.813-0.324,1.182-0.569c0.211-0.142,0.436-0.274,0.672-0.366c0.17-0.066,0.414,0.001,0.549-0.095  c0.492-0.351,1.109-0.519,1.488-1.041c0.066-0.091,0.27-0.078,0.408-0.121c0.449-0.14,0.854-0.335,0.994-0.841  c0.164-0.592,0.322-1.186,0.5-1.773c0.193-0.641,0.5-1.22,0.949-1.725c0.131-0.144,0.153-0.378,0.266-0.543  c0.205-0.304,0.486-0.564,0.648-0.886c0.131-0.258,0.325-0.377,0.534-0.538c0.205-0.16,0.132-0.391-0.038-0.488  c0.122-0.303,0.252-0.559,0.325-0.83c0.074-0.278,0.32-0.172,0.478-0.261c0.104-0.058,0.244-0.06,0.334-0.131  c0.324-0.258,0.695-0.192,1.061-0.181c0.123,0.004,0.244,0.029,0.367,0.046c0.406,0.054,0.811,0.108,1.217,0.162  c0.111,0.015,0.225,0.024,0.367,0.04c-0.037-0.101-0.064-0.171-0.117-0.313c0.475,0.079,0.906,0.131,1.328,0.228  c0.395,0.091,0.783,0.227,1.191,0.349c-0.063,0.019-0.125,0.037-0.25,0.074c0.168,0.103,0.289,0.178,0.381,0.235  c0.088-0.181,0.149-0.309,0.25-0.517c0.354,0.212,0.707,0.412,1.045,0.631c0.055,0.036,0.053,0.157,0.076,0.238  c-0.08-0.003-0.188,0.023-0.24-0.018c-0.168-0.126-0.313-0.278-0.467-0.42c-0.031,0.027-0.066,0.055-0.101,0.083  c0.072,0.092,0.13,0.212,0.224,0.274c0.434,0.282,0.598,0.391,0.481,0.672c0.593,0.078,0.459,0.711,0.787,1.025  c0.033-0.061,0.063-0.111,0.108-0.197c0.017,0.065,0.029,0.092,0.023,0.114c-0.049,0.267-0.119,0.532-0.139,0.799  c-0.006,0.071,0.125,0.204,0.211,0.224c1.143,0.273,2.232,0.768,3.424,0.832c1.084,0.057,2.166,0.139,3.248,0.177  c0.543,0.019,1.094-0.083,1.635-0.041c0.773,0.059,1.508-0.192,2.266-0.229c0.781-0.037,1.568-0.044,2.351-0.01  c0.265,0.013,0.519,0.189,0.875,0.331c-0.166,0.104-0.256,0.161-0.369,0.232c0.38,0.247-0.059,0.556,0.052,0.85  c0.149,0.409-0.398,0.459-0.402,0.836c0.09,0.082,0.215,0.195,0.309,0.278c0,0.116,0.018,0.209-0.008,0.29  c-0.016,0.056-0.082,0.111-0.141,0.138c-0.195,0.093-0.512,0.008-0.504,0.369c-0.236-0.037-0.371,0.024-0.435,0.264  c-0.043,0.159-0.164,0.296-0.224,0.396c-0.729,0.242-1.448,0.482-2.213,0.736c0.019-0.141,0.023-0.198,0.031-0.262  c-0.271,0.026-0.537,0.057-0.805,0.075c-0.139,0.011-0.277,0-0.418-0.001c-0.031,0-0.063,0-0.094,0.001  c-0.453,0.017-0.906,0.039-1.361,0.05c-0.422,0.012-0.846,0.012-1.27,0.016c-0.457,0.005-0.914,0.033-1.367,0.009  c-0.646-0.035-1.291-0.113-1.938-0.168c-0.23-0.021-0.479,0.021-0.691-0.052c-0.816-0.284-1.682-0.353-2.508-0.59  c-0.074-0.021-0.164-0.002-0.273,0.053c0.182,0.093,0.363,0.188,0.547,0.281c-0.006,0.016-0.012,0.03-0.018,0.045h-0.519  c-0.004,0.013-0.006,0.024-0.01,0.037c0.174,0.068,0.351,0.136,0.522,0.205c-0.004,0.019-0.01,0.036-0.016,0.056l-0.527-0.093  c-0.021,0.022-0.047,0.045-0.069,0.066c0.103,0.126,0.202,0.252,0.348,0.434c-0.057,0.043-0.149,0.146-0.264,0.185  c-0.236,0.075-0.254,0.243-0.187,0.417c0.078,0.2,0.021,0.273-0.178,0.316c0.047,0.012,0.092,0.023,0.145,0.037  c-0.057,0.211-0.112,0.426-0.192,0.722c-0.054-0.224-0.092-0.396-0.158-0.665c-0.086,0.268-0.2,0.451-0.188,0.625  c0.054,0.646-0.284,1.156-0.555,1.685c-0.225,0.44-0.502,0.854-0.75,1.282c-0.397,0.689-0.787,1.389-1.195,2.073  c-0.106,0.181-0.286,0.317-0.409,0.493c-0.279,0.393-0.533,0.8-0.813,1.192c-0.146,0.206-0.201,0.509-0.527,0.548  c-0.024,0.002-0.059,0.031-0.067,0.055c-0.203,0.476-0.666,0.742-0.935,1.168c-0.223,0.355-0.44,0.72-0.705,1.047  c-0.364,0.453-0.77,0.874-1.094,1.238c-0.178,0.011-0.287-0.018-0.354,0.024c-0.606,0.37-1.224,0.709-1.942,0.81  c-0.097,0.014-0.185,0.08-0.271,0.041c-0.093-0.039-0.181-0.08-0.271-0.113c-0.156-0.057-0.313-0.107-0.466-0.168  c-0.229-0.088-0.448-0.192-0.678-0.27c-0.312-0.105-0.627-0.197-0.942-0.279c-0.091-0.021-0.191,0.013-0.343,0.022  c0.013,0.013-0.049-0.022-0.051-0.063c-0.076-0.683-0.498-1.186-0.869-1.715c-0.026-0.039-0.041-0.092-0.051-0.141  c-0.035-0.191-0.063-0.389-0.104-0.581c-0.113-0.539-0.279-1.071-0.332-1.616c-0.051-0.531-0.014-1.076,0.035-1.611  c0.041-0.469,0.15-0.93,0.244-1.479c-0.324,0.152-0.578,0.264-0.822,0.393c-0.234,0.121-0.453,0.271-0.689,0.388  c-0.081,0.041-0.202,0.004-0.305,0.013c-0.053,0.006-0.149,0.039-0.147,0.047c0.057,0.342-0.308,0.295-0.438,0.465  c-0.099,0.125-0.31,0.162-0.498,0.252c-0.013-0.043-0.029-0.109-0.033-0.125c-0.191,0.125-0.402,0.262-0.615,0.399  c0.063-0.069,0.127-0.139,0.191-0.21c-0.021-0.029-0.041-0.061-0.063-0.092c-0.197,0.113-0.394,0.229-0.593,0.344  c0.017,0.03,0.031,0.063,0.048,0.094c0.125-0.026,0.25-0.056,0.375-0.082c-0.363,0.238-0.72,0.483-1.089,0.711  c-0.297,0.185-0.604,0.351-0.916,0.515c-0.073,0.042-0.166,0.063-0.25,0.063c-0.026,0-0.09-0.131-0.073-0.149  c0.06-0.076,0.14-0.142,0.224-0.192c0.088-0.055,0.186-0.089,0.258-0.171c-0.205,0.144-0.558,0.033-0.644,0.415  c-0.058,0.241-0.565,0.5-0.787,0.463c-0.032,0.061-0.055,0.153-0.104,0.18c-0.305,0.153-0.619,0.287-0.926,0.436  c-0.422,0.204-0.836,0.422-1.259,0.621c-0.19,0.09-0.422,0.113-0.592,0.23c-0.735,0.508-1.563,0.828-2.379,1.159  c-0.533,0.216-1.07,0.427-1.638,0.58c-0.43,0.115-0.844,0.347-1.284,0.478c-0.47,0.142-0.896,0.371-1.423,0.395  c-0.485,0.021-0.961,0.281-1.452,0.391c-0.982,0.219-1.974,0.418-2.964,0.601c-0.266,0.048-0.543,0.007-0.832-0.064  c0.628-0.129,1.255-0.255,1.884-0.384c-0.011-0.041-0.017-0.082-0.021-0.123c-0.336,0.021-0.67,0.043-1.006,0.067  c-0.332,0.024-0.662,0.059-0.994,0.081c-0.297,0.021-0.597,0.033-0.894,0.05c-0.067,0.004-0.149,0.024-0.205-0.002  c-0.267-0.142-0.282,0.032-0.285,0.241c-0.297-0.063-0.575-0.121-0.856-0.18c0.008-0.029,0.012-0.061,0.016-0.092  c0.195,0.032,0.389,0.063,0.58,0.096c0.006-0.045,0.01-0.092,0.014-0.136c-0.391-0.021-0.779-0.04-1.242-0.063  c0.099,0.111,0.146,0.168,0.195,0.228c0.004-0.002-0.01,0.017-0.018,0.015c-0.412-0.07-0.795-0.178-1.09-0.518  c-0.162-0.186-0.412-0.292-0.615-0.441c-0.145-0.104-0.279-0.222-0.484-0.39h0.512c0.008-0.043,0.017-0.086,0.021-0.128  c-0.119-0.03-0.24-0.061-0.396-0.1c-0.061-0.082-0.156-0.213-0.252-0.344c-0.018,0.008-0.035,0.018-0.053,0.023  c0.031,0.077,0.063,0.154,0.096,0.232c-0.26-0.03-0.662-0.375-0.645-0.554c0.016-0.146,0.08-0.305,0.041-0.433  c-0.088-0.297-0.223-0.576-0.354-0.893c0.059,0.031,0.102,0.057,0.143,0.077c0.057-0.124,0.113-0.247,0.17-0.374  c0.029,0.002,0.057,0.006,0.086,0.008c0.021,0.119,0.068,0.24,0.061,0.356c-0.028,0.433,0.242,0.672,0.722,0.575  c-0.066-0.146-0.125-0.289-0.193-0.428c-0.118-0.234-0.239-0.465,0.158-0.558c-0.112-0.173-0.244-0.271-0.146-0.538  c0.076-0.215-0.084-0.559-0.22-0.799c-0.35-0.62-0.651-1.234-0.629-1.98c0.017-0.49-0.071-0.985-0.135-1.478  c-0.015-0.114-0.101-0.221-0.152-0.332c-0.022-0.051-0.069-0.108-0.063-0.153c0.13-0.593-0.071-1.225,0.222-1.799  c0.045-0.089,0.008-0.22,0.008-0.33c-0.03-0.021-0.063-0.043-0.094-0.063c-0.021,0.079-0.035,0.156-0.054,0.238  c-0.024-0.021-0.053-0.041-0.075-0.06c-0.025-0.18-0.052-0.36-0.082-0.585c-0.093,0.082-0.147,0.131-0.222,0.195  c-0.024-0.047-0.063-0.084-0.059-0.113c0.047-0.342,0.125-0.681,0.141-1.021c0.025-0.51-0.004-1.021,0.019-1.529  c0.021-0.439,0.084-0.877,0.104-1.317c0.015-0.232-0.024-0.466-0.084-0.701c-0.119,0.614-0.24,1.229-0.358,1.844  c-0.027-0.006-0.058-0.012-0.084-0.016c0.039-0.326,0.088-0.651,0.116-0.979c0.05-0.51,0.123-1.022,0.113-1.534  c-0.014-0.828,0.127-1.631,0.283-2.435c0.031-0.165-0.035-0.345-0.029-0.518c0.008-0.289,0.049-0.577,0.053-0.867  c0.003-0.1-0.079-0.291-0.104-0.288c-0.159,0.017-0.315-0.217-0.479-0.008c-0.037,0.047-0.15,0.049-0.228,0.045  c-0.395-0.016-0.79-0.044-1.186-0.055c-0.041,0-0.084,0.083-0.128,0.129c0.017,0.025,0.031,0.051,0.048,0.077  c-0.382,0.036-0.761,0.076-1.14,0.107c-0.58,0.048-1.162,0.074-1.737,0.14c-0.47,0.054-0.931,0.158-1.396,0.229  c-0.257,0.039-0.519,0.042-0.771,0.087c-0.08,0.014-0.145,0.114-0.182,0.22c-0.425,0.092-0.849,0.185-1.271,0.279  c-0.027,0.007-0.057,0.021-0.078,0.042c-0.291,0.302-0.605,0.587-0.869,0.912c-0.33,0.408-0.656,0.828-0.914,1.282  c-0.277,0.485-0.471,1.016-0.703,1.526c-0.19,0.422-0.383,0.843-0.576,1.275c-0.125-0.028-0.223-0.051-0.313-0.071  c-0.205,0.217-0.144,0.672-0.653,0.68c0.143-0.299,0.268-0.559,0.391-0.818c-0.033-0.019-0.064-0.037-0.096-0.055  c-0.177,0.268-0.363,0.529-0.531,0.802c-0.32,0.525-0.662,1.042-0.939,1.591c-0.232,0.461-0.717,0.767-0.777,1.332  c-0.016,0.129-0.172,0.243-0.266,0.364c-0.027-0.017-0.057-0.028-0.084-0.045c-0.005-0.078-0.012-0.158-0.021-0.295  c-0.117,0.079-0.197,0.132-0.275,0.185c0.171,0.327,0.171,0.327-0.398,0.394c0.062-0.144,0.116-0.272,0.172-0.4  c-0.273-0.126-0.388-0.026-0.485,0.392c-0.138,0.063-0.254,0.117-0.371,0.172c0.043,0.082,0.086,0.164,0.114,0.224  c-0.623,0.908-1.258,1.836-1.908,2.782c-0.031-0.082-0.053-0.137-0.076-0.198c-0.035,0.019-0.07,0.024-0.086,0.045  c-0.227,0.341-0.451,0.683-0.677,1.021c-0.04,0.063-0.076,0.13-0.13,0.175c-0.508,0.42-1.022,0.825-1.521,1.254  c-0.416,0.354-0.811,0.737-1.215,1.104c-0.15,0.139-0.307,0.271-0.505,0.359l0.353-0.417c-0.011-0.015-0.021-0.028-0.031-0.042  c-0.08,0.051-0.168,0.09-0.239,0.15c-0.429,0.365-0.845,0.744-1.284,1.099c-0.139,0.113-0.333,0.153-0.496,0.24  c-0.252,0.133-0.5,0.276-0.749,0.42c-0.073,0.041-0.165,0.065-0.214,0.127c-0.349,0.427-0.874,0.574-1.334,0.802  c-0.276,0.137-0.453,0.328-0.653,0.527c-0.112,0.111-0.284,0.16-0.417,0.254c-0.208,0.15-0.407,0.314-0.61,0.475  c0.114,0.131,0.079,0.18-0.26,0.352c0.014-0.068,0.023-0.122,0.045-0.233c-0.219,0.129-0.403,0.236-0.587,0.345  c0.013,0.025,0.025,0.054,0.037,0.08c0.105-0.027,0.21-0.057,0.315-0.088c0.015,0.029,0.03,0.059,0.045,0.088  c-0.29,0.153-0.579,0.311-0.87,0.461c-0.031,0.019-0.1,0.02-0.114,0c-0.239-0.338-0.349-0.021-0.522,0.103  c0.059,0.051,0.107,0.093,0.194,0.17c-0.341,0.125-0.656,0.242-0.974,0.356c-0.502,0.183-0.997,0.391-1.509,0.537  c-1.007,0.287-2.022,0.547-3.039,0.803c-0.079,0.021-0.183-0.053-0.274-0.082c0.026-0.078,0.031-0.178,0.084-0.229  c0.143-0.136,0.082-0.199-0.068-0.214c-0.165-0.017-0.348-0.042-0.496,0.013c-0.114,0.041-0.185,0.198-0.321,0.357  c-0.033-0.027-0.145-0.076-0.168-0.15c-0.077-0.248-0.228-0.363-0.482-0.355c-0.637,0.021-1.092-0.377-1.656-0.709  c0.161-0.036,0.252-0.057,0.389-0.088c-0.219-0.389-0.583-0.467-0.951-0.547c0.104,0.017,0.208,0.031,0.323,0.052  c-0.258-0.261-0.504-0.502-0.743-0.752c-0.153-0.159-0.16-0.302,0.182-0.394c-0.218-0.115-0.357-0.188-0.512-0.269  c0.055-0.013,0.104-0.022,0.251-0.058c-0.241-0.172-0.428-0.309-0.615-0.441l-0.05,0.048c0.013,0.047,0.026,0.093,0.039,0.14  c-0.013,0.016-0.026,0.031-0.039,0.049c-0.309-0.277-0.617-0.553-0.925-0.83c-0.027,0.025-0.054,0.054-0.082,0.078  c0.401,0.451,0.803,0.899,1.204,1.353c-1.165-0.306-1.89-1.167-2.651-1.983c-0.034,0.029-0.067,0.059-0.1,0.088  c0.313,0.61,0.626,1.221,0.982,1.912c0.038-0.158,0.053-0.226,0.069-0.295c0.326,0.377,0.643,0.745,0.926,1.073  c-0.381-0.024-0.543-0.499-0.911-0.681c0.279,0.59,0.712,1.051,1.291,1.465c-0.428,0.113-0.526-0.215-0.679-0.364  c-0.275-0.272-0.496-0.608-0.7-0.94c-0.516-0.844-1.016-1.697-1.506-2.556c-0.057-0.1-0.03-0.252-0.025-0.381  c0.003-0.097,0.072-0.214,0.038-0.291c-0.101-0.231-0.237-0.448-0.359-0.672c-0.034,0.019-0.069,0.036-0.103,0.056  c0.131,0.262,0.264,0.525,0.414,0.826c-0.129-0.053-0.226-0.091-0.383-0.152c0.164,0.443,0.278,0.859,0.466,1.237  c0.296,0.595,0.645,1.161,0.965,1.744c0.266,0.483,0.529,0.985,0.976,1.313c0.337,0.244,0.758,0.377,1.146,0.548  c0.111,0.05,0.24,0.056,0.361,0.084c-0.002,0.024-0.004,0.051-0.006,0.075c-0.273-0.021-0.545-0.041-0.818-0.063  c-0.02,0.109-0.042,0.236-0.076,0.42c0.424,0.156,0.872,0.318,1.32,0.482c0.003,0.021,0.005,0.039,0.007,0.061  c-0.087,0.018-0.183,0.067-0.259,0.049c-0.463-0.125-0.901-0.293-1.215-0.693c-0.101-0.129-0.272-0.199-0.404-0.307  c-0.104-0.086-0.209-0.173-0.291-0.277c-0.48-0.608-0.954-1.221-1.426-1.834c-0.045-0.06-0.063-0.142-0.084-0.217  c-0.07-0.256-0.136-0.517-0.204-0.773c-0.032,0.004-0.065,0.009-0.098,0.015c-0.021,0.063-0.042,0.13-0.062,0.194  c-0.032,0.012-0.064,0.021-0.097,0.033c-0.343-0.752-0.686-1.504-1.03-2.258c0.041-0.027,0.083-0.057,0.124-0.084  c0.041,0.093,0.082,0.185,0.123,0.276c0.037-0.024,0.074-0.052,0.111-0.077c-0.106-0.268-0.212-0.535-0.354-0.892  c-0.042,0.165-0.061,0.241-0.092,0.36c-0.432-0.388-0.351-1.006-0.754-1.379c0.02,0.112,0.035,0.229,0.063,0.34  c0.101,0.412,0.132,0.858,0.328,1.22c0.194,0.358,0.012,0.825,0.308,1.073c0.266,0.225,0.315,0.514,0.45,0.777  c0.037,0.07,0.006,0.176,0.006,0.266c-0.028,0.005-0.055,0.011-0.083,0.017c-0.257-0.483-0.528-0.961-0.765-1.455  c-0.239-0.494-0.444-1.005-0.665-1.507c-0.028,0.005-0.056,0.013-0.083,0.018c0.036,0.229,0.046,0.465,0.112,0.685  c0.065,0.216,0.185,0.416,0.262,0.632c-0.443-0.479-0.719-1.036-0.901-1.654c-0.093-0.313-0.261-0.605-0.407-0.9  c-0.226-0.455-0.469-0.9-0.69-1.356c-0.111-0.229-0.232-0.244-0.457-0.141c-0.538,0.25-1.086,0.479-1.639,0.694  c-0.51,0.198-1.032,0.364-1.545,0.555c-0.5,0.184-0.984,0.432-1.499,0.552c-0.615,0.146-1.211,0.343-1.822,0.495  c-0.08,0.02-0.164,0.033-0.245,0.033c-0.497-0.008-0.968-0.116-1.488,0.104c-0.636,0.27-1.286-0.088-1.912-0.283  c-0.131-0.041-0.261-0.094-0.409-0.097c0.376,0.427,0.93,0.485,1.432,0.714c-0.492,0.078-0.906-0.109-1.282-0.331  c-0.6-0.354-1.082-0.868-1.634-1.29c-0.991-0.756-1.589-1.82-2.085-2.91c-0.374-0.824-0.516-1.754-0.765-2.637  c-0.057-0.204-0.127-0.404-0.192-0.609c-0.068,0.019-0.113,0.019-0.122,0.035c-0.255,0.502-0.779,0.75-1.109,1.199  c-0.489,0.665-1.143,1.189-1.857,1.63c-0.337,0.208-0.624,0.501-0.935,0.753c-0.641,0.519-1.275,1.047-1.93,1.545  c-0.269,0.205-0.585,0.349-0.883,0.514c-0.063,0.035-0.141,0.041-0.212,0.063c0.033,0.043,0.065,0.086,0.098,0.128  c0.072,0.005,0.144,0.009,0.236,0.013c-0.029,0.035-0.042,0.069-0.063,0.074c-0.42,0.09-0.838,0.207-1.263,0.256  c-0.417,0.049-0.853-0.018-1.226,0.242c-0.083,0.057-0.147,0.141-0.221,0.213c0.095,0.063,0.188,0.131,0.287,0.19  c0.033,0.019,0.079,0.019,0.114,0.056c-0.493,0.094-0.923-0.172-1.399-0.291c-0.006,0.092-0.01,0.15-0.01,0.153  c-0.406-0.287-0.831-0.565-1.226-0.878c-0.225-0.18-0.403-0.415-0.599-0.629c-0.112-0.123-0.198-0.279-0.329-0.372  c-0.508-0.356-0.748-0.899-0.96-1.438c-0.148-0.373-0.2-0.797-0.226-1.203c-0.051-0.785-0.094-1.578-0.065-2.363  c0.033-0.893,0.15-1.782,0.225-2.672c0.019-0.228,0.023-0.458,0.017-0.686c-0.001-0.07-0.05-0.156-0.105-0.198  c-0.027-0.021-0.131,0.029-0.179,0.071c-0.573,0.517-1.131,1.054-1.717,1.554c-0.509,0.434-1.05,0.834-1.579,1.244  c-0.398,0.311-0.798,0.616-1.203,0.918c-0.076,0.057-0.172,0.086-0.261,0.127c-0.012-0.029-0.025-0.059-0.038-0.089l0.716-0.562  c-0.013-0.02-0.027-0.036-0.041-0.055c-0.622,0.217-1.244,0.435-1.865,0.651c0.004,0.031,0.009,0.063,0.015,0.097  c0.191,0.077,0.384,0.156,0.579,0.235c-0.248,0-0.503,0.022-0.751-0.011c-0.102-0.014-0.189-0.141-0.282-0.219  c-0.029-0.024-0.048-0.07-0.079-0.082c-0.696-0.235-1.25-0.688-1.752-1.195c-0.284-0.285-0.642-0.646-0.672-0.999  c-0.046-0.534-0.411-0.91-0.478-1.406c-0.008-0.059-0.04-0.118-0.069-0.171c-0.083-0.158-0.179-0.187-0.31-0.042  c-0.222,0.245-0.436,0.503-0.685,0.72c-0.898,0.782-1.811,1.548-2.718,2.321c-0.52,0.444-1.027,0.904-1.562,1.33  c-0.621,0.495-1.258,0.972-1.901,1.437C9.596,24,8.819,24.511,8.07,25.06c-0.394,0.29-0.736,0.647-1.125,0.946  c-0.177,0.136-0.41,0.199-0.618,0.295c-0.018-0.032-0.036-0.063-0.053-0.098c0.356-0.221,0.713-0.442,1.069-0.664L7.322,25.49  c-0.38,0.137-0.753,0.309-1.144,0.401c-0.73,0.173-1.477,0.288-2.208,0.452c-0.555,0.125-1.063,0.003-1.575-0.19  c-0.258-0.098-0.543-0.138-0.78-0.269c-0.204-0.112-0.357-0.317-0.548-0.496c0.501-0.424,0.334-0.83,0.091-1.292  c-0.163-0.31-0.2-0.681-0.06-1.052c0.098-0.256,0.086-0.553,0.18-0.812c0.049-0.132,0.208-0.282,0.343-0.313  c0.882-0.207,1.79-0.319,2.649-0.59c0.606-0.188,1.182-0.529,1.716-0.886c0.909-0.603,1.797-1.239,2.65-1.919  c0.786-0.625,1.541-1.295,2.261-1.995c1.042-1.015,2.03-2.084,3.06-3.111c1.13-1.129,2.272-2.248,3.433-3.346  c0.416-0.393,0.906-0.708,1.333-1.038c-0.322-0.061-0.592,0.195-0.867,0.388c-1.017,0.708-1.821,1.647-2.703,2.501  c-0.175,0.169-0.379,0.308-0.569,0.463c-0.056,0.046-0.108,0.097-0.154,0.154c-0.31,0.39-0.598,0.801-0.933,1.169  c-0.426,0.469-0.846,0.957-1.344,1.341c-0.766,0.589-1.437,1.275-2.159,1.907c-0.766,0.671-1.587,1.282-2.4,1.898  c-0.765,0.578-1.542,1.142-2.332,1.685c-0.254,0.174-0.567,0.267-0.853,0.396l-0.047-0.09c0.312-0.189,0.627-0.373,0.934-0.57  c0.51-0.323,1.031-0.639,1.518-0.995c0.868-0.636,1.723-1.29,2.564-1.96c0.326-0.26,0.594-0.591,0.899-0.877  c0.326-0.305,0.676-0.585,0.995-0.897c0.606-0.593,1.205-1.195,1.794-1.806c0.733-0.759,1.431-1.553,2.182-2.294  c0.806-0.797,1.648-1.56,2.49-2.318c0.304-0.275,0.656-0.497,0.989-0.738c0.047-0.035,0.124-0.08,0.168-0.065  c0.397,0.134,0.864,0.143,1.1,0.583c0.023,0.045,0.055,0.086,0.087,0.125c0.02,0.023,0.047,0.039,0.073,0.058  c0.311-0.239,0.875,0.007,0.986,0.409c0.039,0.142,0.148,0.267,0.261,0.379c-0.018,0.21,0.009,0.391,0.262,0.502  c0.064,0.028,0.071,0.188,0.103,0.288c0.109,0.351,0.219,0.701,0.326,1.052c0.208,0.683,0.418,1.363,0.617,2.049  c0.042,0.145,0.046,0.303,0.073,0.485c0.322-0.009,0.531-0.238,0.751-0.424c0.992-0.842,1.812-1.837,2.592-2.872  c0.513-0.679,1.046-1.343,1.596-1.992c0.552-0.653,1.133-1.283,1.708-1.915c0.077-0.085,0.204-0.126,0.31-0.182  c0.045-0.023,0.108-0.023,0.144-0.056c0.464-0.414,0.89-0.123,1.325,0.063c0.262,0.113,0.521,0.246,0.795,0.313  c0.269,0.066,0.352,0.22,0.342,0.46C32.34,7.804,32.332,7.932,32.518,8c0.044,0.017,0.065,0.176,0.051,0.262  c-0.039,0.232-0.024,0.367,0.278,0.378c0.344,0.013,0.36,0.133,0.317,0.521c-0.037,0.338,0.032,0.686,0.03,1.03  c-0.003,0.422,0.154,0.76,0.458,1.045c0.039,0.036,0.074,0.123,0.058,0.167c-0.273,0.759-0.014,1.527-0.027,2.289  c-0.016,0.88,0.113,1.763,0.092,2.644c-0.017,0.664-0.163,1.327-0.269,1.986c-0.115,0.705-0.346,1.396-0.167,2.127  c0.06,0.242,0.167,0.241,0.355,0.161c0.845-0.359,1.455-1.012,2.036-1.684c0.574-0.659,1.097-1.361,1.64-2.047  c0.365-0.461,0.739-0.916,1.087-1.389c0.194-0.262,0.327-0.57,0.52-0.832c0.149-0.201,0.367-0.35,0.532-0.541  c0.339-0.391,0.667-0.794,0.993-1.196c0.263-0.324,0.522-0.653,0.778-0.985c0.17-0.219,0.31-0.463,0.5-0.662  c0.276-0.29,0.597-0.537,0.873-0.829c0.111-0.117,0.115-0.357,0.237-0.439c0.108-0.071,0.32,0.041,0.47,0.004  c0.294-0.074,0.569-0.234,0.864-0.285c0.303-0.053,0.611,0.052,0.936,0.019c0.345-0.035,0.44,0.335,0.23,0.629  c-0.042,0.059,0.033,0.196,0.045,0.298c0.016,0.123,0.022,0.246,0.035,0.38c-0.076,0.005-0.167,0.012-0.318,0.021  c0.171,0.434,0.332,0.84,0.504,1.272c0.077-0.228,0.132-0.387,0.188-0.547c0.027,0.003,0.056,0.007,0.082,0.012l0.029,0.385  c0.018-0.015,0.035-0.029,0.052-0.045c0.171,0.192,0.343,0.383,0.546,0.61c0.032-0.006,0.143-0.029,0.249-0.053  c-0.041,0.434-0.079,0.832-0.118,1.229c0,0.01-0.011,0.027-0.011,0.028c0.409,0.187,0.311,0.658,0.53,0.955  c0.065,0.089,0.082,0.263,0.042,0.367c-0.087,0.232-0.107,0.224,0.152,0.334c-0.037,0.221-0.073,0.447-0.109,0.675  c-0.026-0.003-0.052-0.004-0.077-0.007c-0.006-0.132-0.013-0.266-0.018-0.397c-0.033,0.001-0.065,0.003-0.097,0.006  c0.019,0.211,0.037,0.422,0.056,0.658c0.265-0.077,0.328,0.042,0.303,0.25c-0.022,0.194-0.067,0.389-0.049,0.58  c0.009,0.096,0.133,0.182,0.248,0.325c0.052,0.097,0.143,0.261,0.23,0.426c0.022,0.043,0.057,0.092,0.051,0.132  c-0.074,0.467,0.129,0.846,0.345,1.237c0.184,0.332,0.261,0.723,0.454,1.045c0.1,0.168,0.344,0.338,0.533,0.348  c0.727,0.042,1.468,0.118,2.139-0.309c0.173-0.108,0.407-0.121,0.604-0.198c0.145-0.058,0.275-0.151,0.412-0.231  c0.026-0.016,0.054-0.063,0.068-0.059c0.37,0.131,0.537-0.297,0.86-0.313c0.089-0.004,0.167-0.14,0.261-0.193  c0.188-0.111,0.388-0.206,0.58-0.313c0.183-0.101,0.362-0.209,0.542-0.317c0.13-0.078,0.231-0.26,0.42-0.094  c0.016,0.014,0.086-0.022,0.124-0.049c0.354-0.243,0.713-0.48,1.055-0.74c0.088-0.066,0.119-0.209,0.204-0.371  c0.2-0.02,0.288-0.169,0.276-0.456c-0.021-0.46,0.012-0.921,0.028-1.382c0.003-0.066,0.042-0.13,0.092-0.272  c0.029,0.534,0.054,0.988,0.079,1.441c0.025,0,0.052,0,0.078,0.001c0-0.438,0-0.877,0-1.316c-0.001-0.176,0.017-0.357-0.016-0.527  c-0.042-0.226,0.091-0.491-0.195-0.67c-0.093-0.058-0.128-0.278-0.12-0.422c0.02-0.36,0.051-0.725,0.133-1.076  c0.054-0.23,0.228-0.43,0.299-0.659c0.092-0.292,0.134-0.601,0.213-0.979c-0.155,0.085-0.216,0.117-0.255,0.138  c0.019-0.389,0.037-0.77,0.055-1.16c0.043-0.024,0.144-0.082,0.243-0.138c-0.074-0.05-0.148-0.1-0.26-0.177  c0.038-0.044,0.092-0.152,0.141-0.15c0.068,0.002,0.131,0.088,0.213,0.149c0.096-0.121,0.177-0.246-0.049-0.365  c-0.03-0.016-0.06-0.069-0.058-0.103c0.018-0.266,0.042-0.531,0.067-0.813c-0.038-0.024-0.118-0.076-0.221-0.14  c0.153-0.123,0.288-0.204,0.386-0.317c0.074-0.086,0.168-0.235,0.14-0.315c-0.156-0.436,0.061-0.761,0.272-1.095  c0.017-0.026,0.05-0.055,0.047-0.078c-0.056-0.507,0.305-0.882,0.445-1.325c0.059-0.186,0.233-0.418,0.471-0.553  c0.109-0.061,0.116-0.319,0.152-0.492c0.082-0.39,0.098-0.405,0.5-0.342c0.103,0.016,0.467-0.315,0.425-0.409  c-0.14-0.312,0.004-0.555,0.179-0.84c0.154,0.062,0.314,0.128,0.421,0.171c0.181-0.263,0.354-0.517,0.544-0.794  c0.14,0.121,0.216,0.187,0.37,0.318c-0.028-0.258-0.047-0.43-0.064-0.601c0.101,0.022,0.239,0.079,0.375,0.078  c0.143-0.001,0.321-0.027,0.217-0.272c0.151,0.027,0.292,0.052,0.5,0.088c-0.073-0.276-0.139-0.523-0.218-0.824  c0.228,0.064,0.425,0.12,0.693,0.195c-0.096-0.196-0.171-0.349-0.255-0.52h0.992c0.054-0.121,0.125-0.283,0.202-0.444  c0.016-0.033,0.056-0.071,0.091-0.077c0.493-0.082,0.976-0.277,1.489-0.135c0.546,0.151,0.962,0.499,1.341,0.895  c0.046,0.049-0.039,0.221-0.073,0.388c0.076,0.093,0.263,0.23,0.304,0.402c0.085,0.356,0.25,0.599,0.597,0.73  c0.051,0.019,0.08,0.168,0.074,0.253c-0.023,0.307-0.08,0.612-0.097,0.92c-0.014,0.243,0.044,0.494,0.01,0.733  c-0.065,0.455,0.034,0.848,0.315,1.205c0.018,0.021,0.029,0.063,0.021,0.089c-0.099,0.312,0.143,0.453,0.348,0.656H68.25  c0.04,0.118,0.044,0.259,0.109,0.297c0.478,0.278,0.39,0.788,0.448,1.197c0.11,0.757,0.074,1.524-0.074,2.288  c-0.112,0.577-0.127,1.173-0.218,1.756c-0.054,0.351-0.134,0.703-0.402,0.979c-0.122,0.125-0.178,0.266,0.037,0.401  c0.155,0.097,0.094,0.32-0.082,0.385c-0.246,0.091-0.326,0.249-0.318,0.523c0.006,0.214,0.17,0.595-0.316,0.586  c-0.034-0.001-0.079,0.126-0.103,0.199c-0.145,0.437-0.281,0.876-0.428,1.312c-0.087,0.259-0.144,0.542-0.292,0.76  c-0.371,0.546-0.774,1.07-1.186,1.587c-0.638,0.799-1.294,1.584-1.94,2.379c-0.044,0.055-0.098,0.126-0.096,0.188  c0.011,0.495-0.054,1.014,0.077,1.477c0.137,0.481,0.251,0.945,0.257,1.447c0.001,0.14,0.16,0.276,0.26,0.437  c-0.369,0.351-0.176,0.729,0.034,1.144c-0.123-0.013-0.194-0.02-0.287-0.029c0.1,0.209,0.194,0.408,0.256,0.537  c0.148-0.024,0.248-0.043,0.364-0.063c-0.024-0.066-0.056-0.15-0.088-0.238c0.014-0.01,0.027-0.02,0.04-0.031  c0.124,0.139,0.247,0.273,0.337,0.375c0.059,0.252,0.11,0.476,0.167,0.719c-0.046-0.016-0.096-0.028-0.143-0.044  c0.111,0.552,0.436,0.958,0.835,1.003c-0.038,0.115-0.091,0.223-0.101,0.334c-0.008,0.08,0.016,0.186,0.065,0.245  c0.232,0.282,0.485,0.549,0.717,0.831c0.175,0.214,0.284,0.518,0.598,0.551c0.59,0.061,1.074,0.496,1.69,0.465  c0.062-0.003,0.129,0.113,0.257,0.234c0.444,0.015,0.973-0.021,1.522-0.133c0.5-0.101,1.006-0.211,1.511-0.309  c0.259-0.051,0.517-0.146,0.755-0.263c1.234-0.595,2.372-1.351,3.501-2.119c0.514-0.351,1.064-0.646,1.578-0.993  c0.253-0.172,0.464-0.406,0.687-0.621c0.63-0.605,1.26-1.213,1.884-1.826c0.654-0.646,1.303-1.3,1.947-1.955  c0.5-0.509,1.015-1.006,1.482-1.541c0.785-0.902,1.536-1.836,2.311-2.747c0.312-0.364,0.654-0.703,0.967-1.064  c0.355-0.415,0.667-0.872,1.057-1.249c0.168-0.162,0.234-0.26,0.174-0.47c-0.015-0.049,0.055-0.121,0.105-0.225  c0.154,0.311,0.295,0.258,0.428,0.035c0.202-0.34,0.402-0.681,0.608-1.019c0.034-0.06,0.095-0.164,0.126-0.158  c0.466,0.095,0.589-0.305,0.765-0.566c0.3-0.439,0.574-0.905,0.791-1.388c0.093-0.204,0.267-0.459,0.08-0.726  c-0.028-0.042-0.008-0.141,0.021-0.195c0.189-0.325,0.39-0.646,0.582-0.967l-0.01,0.01c0.322-0.185,0.391-0.352,0.244-0.648  C91.771,9.5,91.711,9.577,91.65,9.652c-0.028-0.009-0.059-0.02-0.086-0.029c0.027-0.088,0.031-0.2,0.091-0.26  c0.229-0.236,0.459-0.449,0.581-0.778c0.058-0.145,0.31-0.216,0.472-0.321c0.024,0.03,0.054,0.06,0.078,0.09  c-0.136,0.143-0.271,0.284-0.404,0.426c0.021,0.027,0.048,0.055,0.068,0.082c0.092-0.053,0.182-0.106,0.246-0.143  c0.112,0.119,0.215,0.226,0.375,0.389c0-0.278-0.017-0.463,0.004-0.646c0.01-0.09,0.069-0.24,0.123-0.246  c0.104-0.014,0.223,0.056,0.338,0.08c0.082,0.019,0.213,0.058,0.244,0.021c0.573-0.668,1.301-1.004,2.17-1.069  c0.432-0.032,0.86-0.091,1.293-0.117c0.797-0.048,1.59-0.09,2.387-0.114c0.168-0.004,0.339,0.086,0.509,0.117  c0.139,0.026,0.282,0.029,0.424,0.042c0.008-0.04,0.016-0.081,0.021-0.121c-0.172-0.017-0.344-0.034-0.517-0.051  c0.007-0.035,0.011-0.07,0.019-0.105c0.361,0.055,0.726,0.106,1.136,0.167c-0.063-0.085-0.101-0.135-0.162-0.218h1.117l0.008,0.052  c-0.224,0.017-0.445,0.031-0.668,0.047c0,0.007,0,0.014,0.002,0.02h1.287l-0.002-0.105h-0.394c-0.004-0.024-0.004-0.048-0.006-0.072  c0.477-0.051,0.954-0.1,1.43-0.15c0.004,0.026,0.011,0.053,0.013,0.08c-0.205,0.035-0.412,0.069-0.617,0.104  c0.002,0.032,0.004,0.064,0.006,0.095c1.359-0.07,2.719-0.139,4.113-0.211c-0.144-0.09-0.261-0.164-0.386-0.242  c0.291,0.024,0.566,0.047,0.843,0.07c0.004,0.023,0.008,0.048,0.01,0.071c-0.06,0.039-0.119,0.076-0.188,0.12  c0.095,0.273,0.336,0.212,0.509,0.184c0.461-0.075,0.666,0.092,0.497,0.581c-0.067,0.202-0.09,0.42-0.116,0.633  c-0.029,0.207-0.045,0.417-0.058,0.628c-0.006,0.077,0.015,0.156,0.017,0.234c0,0.085,0.004,0.172-0.013,0.255  c-0.021,0.096-0.062,0.188-0.094,0.289c0.08,0.015,0.099,0.022,0.116,0.021c0.146-0.008,0.291-0.019,0.437-0.029  c0.007,0.182,0.031,0.365,0.019,0.543c-0.017,0.171-0.084,0.336-0.109,0.507c-0.016,0.094-0.133,0.251,0.1,0.26  c-0.014,0.119-0.037,0.239-0.041,0.358c-0.022,0.646-0.303,1.238-0.391,1.862c-0.043,0.291-0.16,0.533-0.223,0.802  c-0.172,0.729-0.359,1.457-0.502,2.192c-0.07,0.374-0.037,0.766-0.086,1.145c-0.029,0.221-0.144,0.429-0.189,0.649  c-0.02,0.091,0.092,0.237,0.051,0.292c-0.174,0.243,0.102,0.452,0.027,0.684c-0.033,0.103-0.006,0.226-0.006,0.382  c-0.078-0.06-0.131-0.101-0.186-0.141c-0.015,0.013-0.039,0.023-0.039,0.04c-0.115,0.655-0.226,1.312-0.345,1.964  c-0.019,0.089-0.108,0.165-0.123,0.252c-0.039,0.264-0.057,0.532-0.077,0.771c0.141,0.099,0.254,0.18,0.389,0.272  c0.143-0.271-0.402-0.642,0.063-0.897c0.023-0.348,0.047-0.691,0.068-1.039l0.164,0.006c0,0.22,0.039,0.449-0.014,0.654  c-0.048,0.185,0.065,0.457-0.23,0.563c-0.02,0.007,0.063,0.292,0.1,0.447c0.021,0.095,0.055,0.188,0.068,0.283  c0.088,0.619,0.162,1.242,0.256,1.86c0.055,0.341,0.115,0.685,0.219,1.011c0.07,0.228,0.215,0.432,0.332,0.643  c0.084,0.15,0.168,0.302,0.26,0.447c0.121,0.188,0.254,0.367,0.373,0.556c0.101,0.157,0.189,0.319,0.285,0.479L109.123,27.354   M152.898,18.187c-0.033,0.074-0.066,0.15-0.137,0.313c0.258-0.069,0.422-0.115,0.584-0.159c-0.003-0.019-0.009-0.038-0.011-0.056  c-0.147-0.03-0.297-0.061-0.446-0.092c-0.025-0.07-0.037-0.192-0.078-0.202c-0.209-0.049-0.427-0.084-0.64-0.095  c-0.274-0.015-0.549,0-0.825,0.002c0.002,0.039,0.002,0.078,0.002,0.117c0.209,0.031,0.418,0.063,0.627,0.094  c-0.218,0.048-0.437,0.076-0.644,0.043c-0.459-0.077-0.912-0.214-1.373-0.27c-0.396-0.046-0.799-0.01-1.199-0.01  c-0.161,0-0.321,0-0.479,0c-0.002,0.032-0.004,0.065-0.004,0.098c0.313,0.054,0.623,0.105,0.938,0.159  c-0.002,0.023-0.002,0.046-0.004,0.068h-0.674c0,0.032,0,0.064,0,0.096c1.363,0.142,2.729,0.284,4.107,0.131h-0.17  c0.032-0.088,0.063-0.169,0.104-0.277C152.633,18.156,152.764,18.17,152.898,18.187 M105.494,30.91  c0.059-0.057,0.117-0.111,0.193-0.184c-0.062-0.073-0.123-0.146-0.189-0.23c-0.096,0.102-0.166,0.176-0.27,0.283  c0.104,0.049,0.188,0.087,0.272,0.123c0.028,0.127,0.021,0.285,0.097,0.373c0.17,0.198,0.383,0.363,0.577,0.539  c0.046,0.038,0.103,0.063,0.195,0.116c-0.115-0.171-0.197-0.294-0.279-0.418c0.052-0.046,0.101-0.093,0.15-0.138  c0.057,0.11,0.112,0.224,0.174,0.33c0.209,0.377,0.569,0.545,0.955,0.658c0.164,0.049,0.344,0.025,0.508,0.068  c0.474,0.122,0.899,0.402,1.406,0.395c0.176-0.004,0.353-0.015,0.524-0.01c0.451,0.012,0.9,0.038,1.351,0.038  c0.125,0,0.312-0.142,0.364-0.094c0.289,0.233,0.57,0.044,0.83-0.003c0.535-0.096,1.056-0.262,1.582-0.397  c0.687-0.179,1.383-0.313,2.049-0.546c0.804-0.277,1.58-0.639,2.367-0.967c0.73-0.305,1.465-0.608,2.189-0.928  c0.152-0.067,0.275-0.2,0.412-0.303c-0.02-0.022-0.037-0.048-0.055-0.07c-0.281,0.125-0.564,0.25-0.849,0.377  c-0.008-0.016-0.018-0.029-0.028-0.045c0.092-0.09,0.182-0.182,0.271-0.272c-0.295,0.22-0.776,0.142-0.979,0.647  c-0.019-0.068-0.035-0.138-0.031-0.121c-0.146,0.099-0.254,0.183-0.371,0.25c-0.236,0.135-0.471,0.277-0.719,0.39  c-0.172,0.077-0.365,0.108-0.547,0.162c-0.354,0.101-0.688,0.333-1.021,0.2c-0.209,0.104-0.381,0.188-0.606,0.301  c0.02-0.143,0.026-0.194,0.037-0.255c-0.035,0.008-0.066,0.009-0.097,0.018c-0.578,0.164-1.151,0.332-1.729,0.487  c-0.133,0.035-0.367,0.083-0.4,0.027c-0.139-0.213-0.318-0.117-0.473-0.104c-0.574,0.042-1.104,0.306-1.688,0.326  c-0.272,0.01-0.504,0.021-0.608-0.154c-0.242,0-0.42,0.024-0.584-0.007c-0.138-0.025-0.256-0.131-0.392-0.178  c-0.433-0.155-0.871-0.291-1.299-0.453c-0.229-0.086-0.435-0.271-0.666-0.303c-0.33-0.047-0.556-0.223-0.795-0.414  c-0.453-0.366-0.919-0.719-1.345-1.049c-0.117,0.074-0.237,0.112-0.301,0.197c-0.137,0.182-0.008,0.984,0.176,1.146  c0.062,0.052,0.16,0.059,0.267,0.097c-0.041,0.073-0.104,0.191-0.146,0.271C105.814,31.029,105.652,30.971,105.494,30.91   M140.975,17.004c-0.188,0.074-0.35,0.149-0.518,0.199c-0.094,0.027-0.211,0.044-0.293,0.008c-0.324-0.144-0.645-0.301-0.953-0.469  c-0.178-0.096-0.293-0.057-0.391,0.105c-0.144,0.239-0.305,0.469-0.43,0.717c-0.23,0.456-0.431,0.927-0.664,1.381  c-0.105,0.204-0.279,0.358-0.24,0.637c0.018,0.109-0.144,0.241-0.215,0.369c-0.037,0.069-0.058,0.147-0.084,0.221l0.057,0.033  c0.059-0.039,0.119-0.08,0.244-0.164c-0.115,0.24-0.197,0.409-0.295,0.614c0.143-0.02,0.229-0.032,0.373-0.055  c-0.355,0.303-0.666,0.563-0.976,0.823c0.375-0.102,0.185,0.238,0.269,0.314c0.102,0.029,0.186,0.055,0.301,0.088  c-0.074,0.375-0.436,0.437-0.643,0.639c-0.252,0.244-0.609,0.313-0.818,0.69c-0.289,0.519-0.479,1.021-0.441,1.604  c0.029,0.463,0.047,0.933,0.131,1.388c0.119,0.634,0.342,1.24,0.84,1.687c0.109,0.097,0.365,0.178,0.457,0.119  c0.472-0.313,0.998-0.598,1.342-1.022c0.75-0.925,1.443-1.901,2.08-2.907c0.603-0.953,1.127-1.958,1.631-2.968  c0.285-0.574,0.466-1.202,0.681-1.812c0.172-0.49,0.345-0.98,0.479-1.479c0.129-0.465-0.021-0.646-0.5-0.67  c-0.061-0.003-0.135-0.011-0.176-0.046c-0.412-0.348-0.896-0.13-1.402-0.228C140.91,16.925,140.951,16.976,140.975,17.004   M151.172,18.752c0.002,0.061,0.002,0.121,0.004,0.179c0.256,0,0.512,0.019,0.766-0.007c0.24-0.022,0.521-0.199,0.699-0.121  c0.346,0.15,0.676,0.162,1.031,0.154c0.535-0.013,1.074-0.002,1.609-0.009c0.092-0.001,0.207-0.016,0.264-0.071  c0.191-0.201,0.42-0.174,0.662-0.182c0.215-0.007,0.428-0.088,0.643-0.134c-0.01-0.042-0.02-0.085-0.026-0.127  C154.939,18.542,153.057,18.647,151.172,18.752 M106.355,20.904c0.031-0.74,0.063-1.477,0.096-2.215  c-0.029-0.001-0.061-0.003-0.092-0.004c-0.049,0.507-0.09,1.015-0.152,1.52c-0.02,0.178-0.043,0.396-0.154,0.51  c-0.229,0.233-0.15,0.474-0.18,0.772c0.123-0.095,0.186-0.143,0.246-0.19c0.029,0.039,0.082,0.076,0.082,0.11  c-0.006,0.245-0.018,0.49-0.035,0.733c-0.037,0.498-0.086,0.992-0.105,1.49c-0.004,0.11,0.099,0.227,0.15,0.339l0.094-0.038  c-0.15-0.356,0.365-0.723-0.039-1.072c0.039-0.087,0.105-0.17,0.107-0.254c0.01-0.415,0.004-0.832-0.004-1.246  c0-0.053-0.039-0.115-0.078-0.154c-0.063-0.062-0.139-0.104-0.207-0.158C106.168,21.002,106.252,20.959,106.355,20.904   M140.855,15.96c-0.174-0.092-0.445-0.145-0.515-0.29c-0.149-0.324-0.414-0.28-0.657-0.346c-0.119,0.417-0.091,0.464,0.246,0.563  c0.141,0.042,0.268,0.134,0.395,0.208c0.152,0.086,0.303,0.177,0.48,0.286C140.828,16.195,140.842,16.079,140.855,15.96   M105.592,25.527c0.035-0.002,0.07-0.003,0.104-0.005v-1.928c-0.155,0.067-0.262,0.112-0.366,0.159  c-0.138,0.855-0.131,0.996,0.088,1.19v-0.996c0.035-0.002,0.069-0.003,0.104-0.004C105.545,24.472,105.568,25,105.592,25.527   M100.68,11.592c0.006,0.037,0.01,0.073,0.014,0.11c1.013-0.151,2.043-0.135,3.048-0.336c-0.005-0.043-0.011-0.086-0.017-0.13  C102.709,11.355,101.693,11.476,100.68,11.592 M134.436,31.756c0.006-0.025,0.01-0.053,0.017-0.08  c-0.218-0.098-0.435-0.197-0.649-0.297c-0.041,0.091-0.08,0.172-0.13,0.278c0.373,0.206,0.572,0.729,1.109,0.604  c0.016-0.031,0.032-0.063,0.051-0.094c-0.196-0.105-0.394-0.213-0.621-0.338C134.313,31.797,134.375,31.777,134.436,31.756   M111.059,29.789c-0.516-0.314-1.055-0.207-1.592-0.106C109.984,29.9,110.52,29.854,111.059,29.789 M59.255,4.945  c0.517,0.132,0.658,0.029,0.859-0.672C59.845,4.524,59.303,4.403,59.255,4.945 M131.463,23.92c0.018,0.037,0.037,0.072,0.055,0.11  c0.092-0.04,0.18-0.091,0.273-0.118c0.182-0.054,0.369-0.084,0.547-0.146c0.24-0.081,0.303-0.347,0.148-0.539  c-0.111,0.101-0.211,0.219-0.34,0.301C131.926,23.672,131.689,23.789,131.463,23.92 M145.445,11.741l-0.078,0.097  c0.123,0.114,0.248,0.223,0.365,0.342c0.108,0.114,0.215,0.238,0.315,0.359c0.104,0.124,0.201,0.25,0.306,0.377  c0.03-0.019,0.063-0.037,0.098-0.055c-0.031-0.111-0.027-0.252-0.094-0.328c-0.242-0.268-0.508-0.515-0.771-0.764  C145.559,11.74,145.494,11.75,145.445,11.741 M61.821,2.134c-0.025,0.039-0.073,0.114-0.162,0.251  c0.266,0.109,0.501,0.205,0.725,0.298c0.042-0.221,0.068-0.36,0.093-0.493C62.285,2.175,62.084,2.157,61.821,2.134 M154.639,18.211  c0.387,0.124,1.363,0.073,1.521-0.078C155.717,17.978,154.799,18.024,154.639,18.211 M123.98,28.955  c-0.013-0.022-0.021-0.047-0.031-0.072c-0.441,0.199-0.887,0.396-1.33,0.597C123.186,29.557,123.59,29.272,123.98,28.955   M121.984,29.109c-0.103-0.018-0.244-0.382-0.365,0.029c-0.006,0.021-0.096,0.031-0.146,0.025c-0.373-0.039-0.35,0.207-0.361,0.488  C121.428,29.455,121.713,29.278,121.984,29.109 M119.984,30.553c0.016,0.037,0.051,0.121,0.094,0.227  c0.346-0.184,0.762-0.177,1.006-0.518C120.725,30.355,120.369,30.451,119.984,30.553 M136.221,32.261  c0.223,0.258,0.4,0.204,0.596,0.047c0.164-0.13,0.349-0.233,0.521-0.349c-0.014-0.02-0.025-0.037-0.039-0.056  C136.949,32.021,136.596,32.137,136.221,32.261 M139.443,16.417c0.135,0.481,0.57,0.358,0.881,0.538  c-0.15-0.201-0.25-0.41-0.416-0.524C139.799,16.355,139.594,16.417,139.443,16.417 M148.15,18.109  c0.002-0.028,0.004-0.058,0.006-0.086c-0.42-0.063-0.838-0.126-1.26-0.188c-0.004,0.037-0.01,0.074-0.017,0.11  C147.287,18.112,147.699,18.249,148.15,18.109 M113.91,32.651c-0.439,0.103-0.844,0.195-1.246,0.288  C113.785,32.926,113.785,32.926,113.91,32.651 M133.537,19.795c0.016,0.023,0.027,0.049,0.045,0.071  c0.492-0.099,0.939-0.413,0.908-0.685C134.164,19.394,133.85,19.595,133.537,19.795 M129.309,25.071  c0.015,0.03,0.025,0.06,0.039,0.091c0.211,0.039,0.424,0.077,0.709,0.129c-0.111-0.187-0.188-0.434-0.285-0.444  C129.627,24.832,129.463,24.987,129.309,25.071 M155.748,18.899c0.004,0.026,0.008,0.056,0.01,0.083  c0.313,0,0.625,0.004,0.938-0.004c0.046-0.001,0.087-0.061,0.13-0.093c-0.037-0.038-0.08-0.114-0.113-0.109  C156.391,18.81,156.07,18.856,155.748,18.899 M105.361,21.32c-0.035-0.002-0.07-0.004-0.105-0.007  c-0.035,0.461-0.07,0.921-0.111,1.457C105.479,22.266,105.225,21.771,105.361,21.32 M114.906,32.381  c-0.217,0.09-0.434,0.177-0.711,0.289C114.584,32.864,114.777,32.789,114.906,32.381 M158.023,18.797  c-0.012-0.041-0.021-0.082-0.029-0.123c-0.338,0.089-0.676,0.177-1.012,0.266C157.357,19.01,157.715,19.008,158.023,18.797   M124.105,28.192c0.369,0.078,0.467-0.181,0.645-0.34c-0.063-0.095-0.115-0.177-0.176-0.271c-0.133,0.094-0.246,0.176-0.359,0.256  c0.012,0.019,0.025,0.035,0.037,0.054l0.299-0.086c0.012,0.022,0.023,0.049,0.035,0.073  C124.441,27.972,124.297,28.068,124.105,28.192 M122.104,28.791c0.148,0.06,0.24,0.097,0.33,0.133  c0.148-0.137,0.291-0.272,0.435-0.406c-0.021-0.03-0.039-0.063-0.058-0.096C122.59,28.537,122.371,28.651,122.104,28.791   M64.645,27.531c0.021-0.023,0.044-0.05,0.065-0.072c-0.084-0.146-0.159-0.299-0.259-0.435c-0.022-0.03-0.129,0-0.196,0.003  c0.053,0.13,0.09,0.27,0.165,0.385C64.461,27.474,64.568,27.494,64.645,27.531 M148.775,16.181c-0.006,0.035-0.012,0.07-0.017,0.105  c0.412,0.062,0.828,0.125,1.24,0.186c0.008-0.041,0.015-0.082,0.021-0.123C149.605,16.293,149.191,16.235,148.775,16.181   M60.101,30.838c-0.041,0.02-0.082,0.039-0.123,0.058c0.13,0.259,0.26,0.519,0.389,0.774c0.042-0.021,0.085-0.043,0.128-0.064  C60.364,31.351,60.231,31.095,60.101,30.838 M128.801,25.431c-0.033-0.04-0.066-0.082-0.098-0.124  c-0.26,0.176-0.518,0.352-0.777,0.529c0.023,0.033,0.047,0.067,0.07,0.102C128.264,25.769,128.531,25.601,128.801,25.431   M107.408,33.112c-0.164-0.344-0.426-0.43-0.656-0.25C106.986,32.951,107.197,33.031,107.408,33.112 M66.38,29.936  c0.029-0.035,0.058-0.071,0.086-0.105c-0.258-0.182-0.517-0.363-0.774-0.545l-0.051,0.065C65.889,29.545,66.134,29.74,66.38,29.936   M91.914,11.061c-0.016-0.023-0.031-0.047-0.047-0.07c-0.158,0.025-0.316,0.052-0.467,0.077c0.051,0.128,0.092,0.234,0.149,0.381  C91.682,11.308,91.797,11.185,91.914,11.061 M122.242,29.756c-0.021-0.034-0.045-0.067-0.066-0.103  c-0.199,0.113-0.398,0.228-0.598,0.341c0.016,0.028,0.031,0.057,0.049,0.088C121.836,29.984,122.133,30.049,122.242,29.756   M65.041,28.269c-0.032,0.021-0.065,0.038-0.097,0.057c0.101,0.169,0.202,0.341,0.302,0.511c0.036-0.021,0.07-0.039,0.105-0.06  C65.439,28.502,65.193,28.414,65.041,28.269 M107.479,26.844c0.222,0.228,0.486,0.501,0.754,0.777  c0.037-0.039,0.076-0.074,0.115-0.113C108.043,27.275,107.738,27.043,107.479,26.844 M128.73,24.317  c0.271,0.181,0.469,0.078,0.631-0.241C129.139,24.162,128.936,24.239,128.73,24.317 M133.703,30.008  c-0.023,0.039-0.049,0.074-0.072,0.111c0.266,0.147,0.533,0.293,0.797,0.44c0.016-0.029,0.033-0.06,0.051-0.089  C134.221,30.317,133.961,30.164,133.703,30.008 M91.166,18.676c-0.027-0.049-0.051-0.094-0.074-0.144  c-0.115,0.059-0.232,0.114-0.338,0.187c-0.012,0.009,0.045,0.115,0.068,0.177C90.938,18.822,91.051,18.75,91.166,18.676   M106.252,24.502c-0.041,0.203-0.072,0.369-0.109,0.556C106.447,24.994,106.467,24.873,106.252,24.502"/>
<g>
	<g>
		<path fill="#FAF4EC" d="M51.219,48.086v-0.085c0.224-0.011,0.411-0.057,0.562-0.141c0.151-0.082,0.252-0.18,0.304-0.29    c0.032-0.066,0.055-0.151,0.07-0.252c0.016-0.102,0.026-0.204,0.032-0.309c0.01-0.344,0.015-0.671,0.015-0.982v-0.97V42.85    c-0.171,0.386-0.329,0.739-0.472,1.063c-0.144,0.322-0.285,0.637-0.425,0.943c-0.141,0.308-0.283,0.621-0.427,0.941    c-0.143,0.319-0.3,0.672-0.472,1.057c-0.026,0.053-0.062,0.135-0.109,0.246c-0.047,0.112-0.093,0.228-0.14,0.345    s-0.091,0.224-0.132,0.319c-0.042,0.097-0.067,0.16-0.079,0.19h-0.047c-0.167-0.384-0.332-0.767-0.496-1.146    c-0.165-0.381-0.324-0.746-0.48-1.097c-0.156-0.352-0.301-0.681-0.436-0.988c-0.136-0.307-0.259-0.58-0.368-0.819    c-0.109-0.238-0.198-0.44-0.27-0.602c-0.07-0.161-0.118-0.271-0.144-0.326c0,0.343-0.002,0.646-0.003,0.908    c-0.003,0.263-0.006,0.521-0.008,0.78c-0.002,0.257-0.003,0.529-0.003,0.814v0.999c0,0.245,0.007,0.457,0.023,0.638    c0.016,0.179,0.055,0.329,0.117,0.451c0.062,0.122,0.157,0.219,0.285,0.289s0.303,0.121,0.527,0.152v0.077h-2.037v-0.077    c0.183-0.036,0.331-0.09,0.445-0.16c0.115-0.07,0.206-0.168,0.274-0.293s0.117-0.28,0.148-0.465    c0.03-0.184,0.05-0.409,0.054-0.675c0.01-0.223,0.018-0.487,0.023-0.792c0.006-0.305,0.008-0.631,0.008-0.979v-0.383v-0.296    v-0.305c0-0.104-0.002-0.231-0.008-0.382c-0.004-0.145-0.036-0.265-0.093-0.354c-0.058-0.091-0.125-0.163-0.203-0.215    c-0.078-0.053-0.161-0.09-0.249-0.114c-0.089-0.023-0.164-0.04-0.227-0.052v-0.077h1.662l1.866,4.245    c0.229-0.494,0.452-0.985,0.671-1.475c0.219-0.487,0.415-0.931,0.589-1.326c0.175-0.396,0.317-0.725,0.43-0.987    c0.113-0.263,0.176-0.415,0.192-0.457h1.662v0.077c-0.214,0.008-0.376,0.051-0.489,0.135c-0.112,0.082-0.188,0.182-0.23,0.296    c-0.032,0.089-0.052,0.227-0.063,0.414c-0.01,0.188-0.018,0.373-0.023,0.554c-0.004,0.25-0.008,0.492-0.008,0.727v0.71v0.843    c0,0.276,0.002,0.568,0.008,0.875c0,0.101,0.006,0.199,0.02,0.3c0.013,0.103,0.035,0.183,0.066,0.239    c0.005,0.011,0.025,0.035,0.059,0.074c0.033,0.038,0.082,0.082,0.143,0.125c0.063,0.044,0.142,0.082,0.234,0.116    c0.095,0.034,0.203,0.054,0.329,0.06v0.077h-2.679V48.086z"/>
		<path fill="#FAF4EC" d="M59.242,48.086h-4.776v-0.077c0.13-0.021,0.251-0.055,0.363-0.103c0.113-0.046,0.205-0.111,0.278-0.194    c0.025-0.031,0.046-0.078,0.062-0.137c0.016-0.061,0.029-0.129,0.043-0.206c0.014-0.079,0.022-0.161,0.028-0.247    c0.005-0.086,0.008-0.171,0.008-0.253c0-0.074,0.001-0.172,0.003-0.298c0.003-0.124,0.005-0.262,0.008-0.409    c0.003-0.148,0.004-0.301,0.004-0.457v-0.453V43.73c0-0.093,0-0.188-0.004-0.288c-0.002-0.099-0.008-0.192-0.016-0.281    c-0.007-0.087-0.02-0.168-0.039-0.237c-0.018-0.07-0.043-0.121-0.074-0.152c-0.079-0.083-0.161-0.136-0.249-0.159    c-0.089-0.023-0.203-0.047-0.343-0.068v-0.077h4.309l0.53,1.289l-0.078,0.038c-0.422-0.524-0.817-0.879-1.187-1.061    c-0.089-0.043-0.252-0.079-0.491-0.111c-0.24-0.03-0.531-0.047-0.875-0.047c-0.11,0-0.223,0.005-0.34,0.013    c-0.117,0.008-0.201,0.017-0.253,0.026c-0.011,0.084-0.019,0.255-0.028,0.516c-0.007,0.259-0.011,0.563-0.011,0.906v0.499    c0,0.135,0.001,0.246,0.004,0.332c0.001,0.086,0.003,0.152,0.003,0.198v0.086h0.156c0.079,0,0.168-0.004,0.269-0.008    c0.103-0.005,0.203-0.012,0.305-0.019c0.101-0.01,0.186-0.021,0.253-0.036c0.156-0.037,0.287-0.085,0.39-0.148    c0.104-0.063,0.189-0.138,0.254-0.227c0.066-0.088,0.118-0.19,0.156-0.309c0.039-0.117,0.074-0.249,0.104-0.394h0.095v2.459    h-0.095c-0.041-0.167-0.104-0.339-0.191-0.515c-0.086-0.178-0.176-0.311-0.269-0.399c-0.084-0.072-0.183-0.132-0.3-0.18    c-0.117-0.046-0.254-0.075-0.41-0.085c-0.078-0.006-0.143-0.01-0.195-0.013c-0.053-0.002-0.104-0.004-0.156-0.004h-0.156h-0.203    c-0.011,0.074-0.016,0.181-0.016,0.32v0.438v0.233v0.266c0,0.084,0.001,0.163,0.004,0.239c0.001,0.075,0.003,0.139,0.003,0.19    c0.004,0.167,0.014,0.324,0.028,0.472c0.012,0.15,0.042,0.259,0.089,0.332c0.048,0.073,0.159,0.125,0.335,0.156    c0.178,0.031,0.37,0.048,0.578,0.048c0.088,0,0.202-0.003,0.339-0.009c0.137-0.005,0.282-0.018,0.433-0.039    c0.167-0.021,0.319-0.061,0.461-0.121c0.14-0.06,0.275-0.145,0.405-0.254c0.13-0.108,0.256-0.243,0.378-0.401    c0.123-0.158,0.248-0.35,0.379-0.574l0.086,0.023L59.242,48.086z"/>
		<path fill="#FAF4EC" d="M65.97,46.229c-0.095,0.296-0.221,0.552-0.382,0.766c-0.162,0.214-0.348,0.391-0.562,0.529    c-0.214,0.143-0.441,0.254-0.68,0.337c-0.24,0.083-0.487,0.143-0.741,0.176c-0.255,0.034-0.503,0.052-0.743,0.052h-2.848v-0.079    c0.131-0.016,0.256-0.05,0.379-0.103c0.122-0.051,0.214-0.114,0.277-0.187c0.026-0.025,0.046-0.07,0.058-0.133    c0.014-0.063,0.024-0.133,0.035-0.211c0.011-0.078,0.018-0.161,0.024-0.249c0.005-0.09,0.008-0.175,0.008-0.258    c0-0.073,0.001-0.172,0.003-0.296c0.001-0.126,0.005-0.262,0.008-0.41c0.001-0.149,0.003-0.301,0.003-0.457v-0.453v-1.521v-0.281    c0-0.093-0.003-0.181-0.012-0.262c-0.008-0.08-0.019-0.152-0.035-0.218c-0.016-0.065-0.04-0.116-0.071-0.151    c-0.078-0.094-0.171-0.159-0.281-0.195c-0.11-0.037-0.231-0.063-0.367-0.079v-0.078c0.219,0,0.534-0.002,0.945-0.004    c0.411-0.003,0.908-0.004,1.491-0.004h0.5c0.172,0,0.343,0.008,0.516,0.023c0.171,0.015,0.343,0.041,0.515,0.077    c0.172,0.038,0.341,0.091,0.507,0.165c0.218,0.094,0.424,0.214,0.617,0.359c0.192,0.146,0.36,0.317,0.503,0.519    c0.144,0.2,0.258,0.431,0.343,0.694c0.086,0.263,0.129,0.563,0.129,0.901C66.111,45.588,66.064,45.932,65.97,46.229 M65.01,44.332    c-0.095-0.286-0.225-0.546-0.391-0.776c-0.167-0.23-0.364-0.429-0.593-0.589c-0.229-0.161-0.479-0.265-0.749-0.312    c-0.104-0.022-0.219-0.039-0.344-0.051c-0.124-0.014-0.279-0.021-0.46-0.021c-0.063,0-0.13,0.002-0.203,0.004    c-0.073,0.004-0.146,0.009-0.215,0.017c-0.069,0.008-0.135,0.015-0.195,0.02s-0.108,0.013-0.145,0.022    c-0.026,0.256-0.042,0.607-0.046,1.055c-0.007,0.447-0.008,0.979-0.008,1.6v0.913c0,0.271,0.001,0.492,0.008,0.663    c0,0.073,0.003,0.153,0.012,0.239c0.008,0.084,0.017,0.168,0.028,0.248c0.01,0.082,0.027,0.153,0.051,0.219    c0.023,0.064,0.05,0.114,0.082,0.146c0.104,0.104,0.235,0.17,0.394,0.198c0.16,0.029,0.309,0.044,0.449,0.044    c0.131,0,0.264-0.007,0.402-0.021c0.138-0.012,0.267-0.037,0.386-0.074c0.562-0.161,0.982-0.475,1.26-0.94    c0.279-0.467,0.417-1.039,0.417-1.721C65.15,44.913,65.104,44.62,65.01,44.332"/>
		<path fill="#FAF4EC" d="M66.703,48.086v-0.077c0.131-0.021,0.251-0.055,0.363-0.103c0.112-0.046,0.207-0.114,0.285-0.203    c0.026-0.029,0.046-0.075,0.059-0.133c0.013-0.057,0.023-0.124,0.031-0.201c0.008-0.079,0.013-0.161,0.016-0.247    c0.001-0.086,0.003-0.171,0.003-0.253c0-0.074,0.002-0.172,0.004-0.298c0.003-0.124,0.006-0.262,0.008-0.409    c0.002-0.148,0.004-0.301,0.004-0.457v-0.453V43.73v-0.28c0-0.095-0.004-0.181-0.013-0.262c-0.007-0.082-0.019-0.153-0.035-0.219    c-0.016-0.064-0.039-0.115-0.07-0.151c-0.073-0.088-0.163-0.152-0.27-0.191c-0.106-0.039-0.228-0.066-0.363-0.083v-0.077h2.334    v0.077c-0.109,0.018-0.227,0.047-0.351,0.087c-0.125,0.042-0.222,0.125-0.289,0.25c-0.047,0.088-0.071,0.2-0.074,0.336    c-0.001,0.135-0.007,0.262-0.012,0.381c0,0.132,0,0.26-0.003,0.386c-0.002,0.128-0.004,0.258-0.004,0.387v0.407v0.443v1.766    c0,0.15,0.003,0.296,0.008,0.437c0.006,0.142,0.029,0.239,0.07,0.297c0.063,0.089,0.161,0.156,0.297,0.202    c0.136,0.049,0.258,0.076,0.367,0.087v0.077H66.703z"/>
		<path fill="#FAF4EC" d="M75.241,43.934c-0.041-0.094-0.09-0.191-0.148-0.292c-0.056-0.102-0.116-0.196-0.175-0.285    c-0.06-0.087-0.118-0.17-0.176-0.247c-0.057-0.074-0.108-0.13-0.149-0.167c-0.109-0.104-0.228-0.172-0.354-0.206    c-0.127-0.034-0.291-0.054-0.488-0.059c-0.1,0-0.184-0.002-0.258-0.004c-0.073-0.003-0.146-0.004-0.218-0.004h-0.226H72.76    c0,0.13-0.001,0.307-0.004,0.529c-0.002,0.225-0.004,0.458-0.004,0.703v0.727v0.592v1.734c0,0.15,0.004,0.296,0.012,0.433    c0.008,0.14,0.032,0.235,0.075,0.293c0.077,0.114,0.188,0.192,0.332,0.234c0.143,0.041,0.271,0.072,0.385,0.094v0.077H71.02    v-0.077c0.135-0.018,0.266-0.042,0.39-0.079c0.124-0.035,0.247-0.121,0.367-0.256c0.026-0.026,0.046-0.071,0.059-0.13    c0.014-0.061,0.023-0.127,0.032-0.203c0.007-0.075,0.013-0.157,0.016-0.247c0.002-0.087,0.003-0.173,0.003-0.256    c0-0.073,0.001-0.171,0.004-0.29c0.003-0.119,0.005-0.251,0.009-0.397c0.002-0.146,0.004-0.296,0.004-0.452v-0.446V42.67h-0.289    h-0.226c-0.069,0-0.14,0.001-0.215,0.004c-0.076,0.002-0.163,0.004-0.261,0.004c-0.198,0.005-0.361,0.027-0.487,0.069    c-0.128,0.043-0.247,0.115-0.355,0.219c-0.042,0.037-0.089,0.09-0.145,0.164c-0.055,0.072-0.112,0.152-0.171,0.238    c-0.061,0.085-0.118,0.179-0.172,0.277s-0.098,0.194-0.129,0.288l-0.07-0.022l0.234-1.483c0.119,0.026,0.23,0.047,0.331,0.063    c0.102,0.015,0.249,0.025,0.441,0.03c0.198,0.006,0.375,0.01,0.531,0.012c0.156,0.003,0.308,0.005,0.454,0.005h0.445h0.522h0.515    c0.155,0,0.307-0.002,0.453-0.005c0.146-0.002,0.296-0.005,0.453-0.008c0.156-0.002,0.332-0.004,0.531-0.004    c0.17-0.005,0.313-0.02,0.424-0.042c0.112-0.024,0.228-0.055,0.347-0.091l0.25,1.522L75.241,43.934z"/>
		<path fill="#FAF4EC" d="M80.308,48.086h-4.777v-0.077c0.131-0.021,0.252-0.055,0.363-0.103c0.112-0.046,0.204-0.111,0.277-0.194    c0.025-0.031,0.046-0.078,0.062-0.137c0.017-0.061,0.03-0.129,0.043-0.206c0.014-0.079,0.022-0.161,0.029-0.247    c0.005-0.086,0.008-0.171,0.008-0.253c0-0.074,0.001-0.172,0.003-0.298c0.003-0.124,0.006-0.262,0.008-0.409    c0.004-0.148,0.004-0.301,0.004-0.457v-0.453V43.73c0-0.093,0-0.188-0.004-0.288c-0.002-0.099-0.008-0.192-0.016-0.281    c-0.008-0.087-0.02-0.168-0.039-0.237c-0.019-0.07-0.043-0.121-0.074-0.152c-0.079-0.083-0.161-0.136-0.249-0.159    c-0.088-0.023-0.203-0.047-0.343-0.068v-0.077h4.308l0.531,1.289l-0.078,0.038c-0.422-0.524-0.817-0.879-1.187-1.061    c-0.089-0.043-0.251-0.079-0.491-0.111c-0.24-0.03-0.531-0.047-0.875-0.047c-0.11,0-0.223,0.005-0.34,0.013    c-0.117,0.008-0.202,0.017-0.253,0.026c-0.011,0.084-0.019,0.255-0.028,0.516c-0.006,0.259-0.011,0.563-0.011,0.906v0.499    c0,0.135,0.001,0.246,0.005,0.332c0.001,0.086,0.003,0.152,0.003,0.198v0.086h0.156c0.078,0,0.168-0.004,0.269-0.008    c0.103-0.005,0.205-0.012,0.305-0.019c0.101-0.01,0.186-0.021,0.253-0.036c0.156-0.037,0.286-0.085,0.39-0.148    c0.104-0.063,0.189-0.138,0.254-0.227c0.065-0.088,0.117-0.19,0.156-0.309c0.039-0.117,0.074-0.249,0.105-0.394h0.093v2.459    h-0.093c-0.042-0.167-0.105-0.339-0.191-0.515c-0.086-0.178-0.176-0.311-0.27-0.399c-0.083-0.072-0.182-0.132-0.301-0.18    c-0.116-0.046-0.252-0.075-0.41-0.085c-0.078-0.006-0.143-0.01-0.195-0.013c-0.052-0.002-0.104-0.004-0.155-0.004h-0.156h-0.204    c-0.009,0.074-0.016,0.181-0.016,0.32v0.438v0.233v0.266c0,0.084,0.001,0.163,0.005,0.239c0.001,0.075,0.003,0.139,0.003,0.19    c0.006,0.167,0.016,0.324,0.028,0.472c0.012,0.15,0.043,0.259,0.09,0.332s0.158,0.125,0.335,0.156s0.369,0.048,0.577,0.048    c0.088,0,0.203-0.003,0.341-0.009c0.138-0.005,0.282-0.018,0.434-0.039c0.166-0.021,0.319-0.061,0.46-0.121    c0.14-0.06,0.275-0.145,0.405-0.254c0.131-0.108,0.256-0.243,0.378-0.401c0.124-0.158,0.249-0.35,0.381-0.574l0.086,0.023    L80.308,48.086z"/>
		<path fill="#FAF4EC" d="M85.382,48.086c-0.048-0.046-0.082-0.082-0.103-0.105c-0.021-0.022-0.045-0.049-0.07-0.082    c-0.026-0.03-0.059-0.077-0.097-0.138c-0.04-0.059-0.102-0.148-0.184-0.268c-0.099-0.146-0.187-0.277-0.262-0.396    c-0.075-0.116-0.153-0.232-0.229-0.346c-0.08-0.115-0.164-0.231-0.254-0.348c-0.091-0.117-0.199-0.249-0.323-0.394    c-0.105-0.119-0.218-0.232-0.341-0.336c-0.122-0.104-0.251-0.17-0.386-0.195c-0.099-0.021-0.174-0.031-0.226-0.031    c-0.048,0-0.107-0.003-0.181-0.009v0.883c0,0.249,0.003,0.461,0.008,0.632c0.005,0.167,0.012,0.31,0.017,0.43    c0.005,0.118,0.033,0.218,0.085,0.296c0.041,0.068,0.123,0.137,0.243,0.207c0.119,0.071,0.284,0.111,0.499,0.12v0.078h-2.497    v-0.078c0.13-0.02,0.254-0.051,0.374-0.094c0.119-0.041,0.214-0.104,0.281-0.187c0.026-0.03,0.048-0.078,0.063-0.141    c0.016-0.063,0.027-0.133,0.035-0.211c0.009-0.077,0.015-0.161,0.02-0.249c0.006-0.089,0.008-0.175,0.008-0.257    c0-0.074,0.002-0.172,0.004-0.298c0.004-0.124,0.007-0.26,0.009-0.409c0.003-0.148,0.004-0.301,0.004-0.457v-0.452V43.73    c0-0.093-0.001-0.188-0.004-0.284c-0.002-0.096-0.009-0.187-0.016-0.273c-0.008-0.086-0.021-0.164-0.039-0.233    c-0.02-0.07-0.045-0.121-0.076-0.152c-0.077-0.083-0.164-0.141-0.26-0.169c-0.096-0.027-0.215-0.052-0.355-0.074v-0.078h0.319    c0.177,0,0.378-0.001,0.602-0.004c0.225-0.002,0.446-0.004,0.672-0.004h0.545c0.349,0,0.659,0.012,0.93,0.031    c0.271,0.021,0.518,0.091,0.741,0.211c0.229,0.12,0.414,0.282,0.555,0.487c0.14,0.207,0.211,0.466,0.211,0.777    c0,0.191-0.035,0.365-0.105,0.518c-0.07,0.154-0.164,0.289-0.281,0.407c-0.116,0.116-0.253,0.217-0.41,0.3    c-0.155,0.084-0.318,0.153-0.491,0.212v0.022c0.088,0.047,0.175,0.115,0.258,0.203s0.163,0.187,0.242,0.296    c0.135,0.199,0.281,0.413,0.44,0.64c0.159,0.23,0.302,0.434,0.426,0.609c0.191,0.272,0.38,0.47,0.562,0.594    c0.182,0.125,0.396,0.206,0.641,0.242v0.078H85.382L85.382,48.086z M84.608,43.225c-0.131-0.203-0.32-0.365-0.57-0.483    c-0.125-0.058-0.257-0.1-0.394-0.126c-0.138-0.024-0.283-0.038-0.434-0.038c-0.109,0-0.198,0.003-0.266,0.007    c-0.068,0.007-0.12,0.012-0.156,0.016c-0.005,0.032-0.012,0.06-0.016,0.083c-0.005,0.022-0.011,0.052-0.012,0.089    c-0.004,0.036-0.006,0.086-0.008,0.152c-0.003,0.064-0.007,0.157-0.012,0.277c-0.007,0.182-0.011,0.388-0.014,0.616    c-0.002,0.229-0.004,0.449-0.004,0.663v0.563v0.296c0.214,0,0.414-0.009,0.598-0.026c0.185-0.019,0.363-0.057,0.535-0.114    c0.167-0.052,0.311-0.122,0.429-0.21c0.12-0.088,0.218-0.188,0.293-0.302c0.076-0.112,0.132-0.232,0.167-0.362    c0.037-0.131,0.056-0.266,0.056-0.406C84.803,43.659,84.737,43.427,84.608,43.225"/>
		<path fill="#FAF4EC" d="M91.329,48.086c-0.048-0.046-0.082-0.082-0.103-0.105c-0.021-0.022-0.045-0.049-0.071-0.082    c-0.024-0.03-0.057-0.077-0.096-0.138c-0.04-0.059-0.101-0.148-0.184-0.268c-0.099-0.146-0.187-0.277-0.262-0.396    c-0.075-0.116-0.152-0.232-0.229-0.346c-0.079-0.115-0.163-0.231-0.254-0.348c-0.091-0.117-0.199-0.249-0.324-0.394    c-0.104-0.119-0.217-0.232-0.339-0.336c-0.123-0.104-0.251-0.17-0.386-0.195c-0.1-0.021-0.176-0.031-0.228-0.031    c-0.047,0-0.105-0.003-0.18-0.009v0.883c0,0.249,0.003,0.461,0.009,0.632c0.005,0.167,0.01,0.31,0.016,0.43    c0.005,0.118,0.033,0.218,0.085,0.296c0.042,0.068,0.122,0.137,0.242,0.207c0.12,0.071,0.286,0.111,0.5,0.12v0.078h-2.497v-0.078    c0.13-0.02,0.254-0.051,0.375-0.094c0.119-0.041,0.213-0.104,0.28-0.187c0.026-0.03,0.048-0.078,0.063-0.141    s0.026-0.133,0.035-0.211c0.008-0.077,0.015-0.161,0.019-0.249c0.006-0.089,0.008-0.175,0.008-0.257    c0-0.074,0.002-0.172,0.004-0.298c0.003-0.124,0.006-0.26,0.009-0.409c0.002-0.148,0.003-0.301,0.003-0.457v-0.452V43.73    c0-0.093-0.001-0.188-0.003-0.284c-0.003-0.096-0.009-0.187-0.016-0.273c-0.009-0.086-0.021-0.164-0.04-0.233    c-0.018-0.07-0.043-0.121-0.074-0.152c-0.078-0.083-0.164-0.141-0.262-0.169c-0.096-0.027-0.215-0.052-0.354-0.074v-0.078h0.32    c0.177,0,0.377-0.001,0.601-0.004c0.224-0.002,0.447-0.004,0.672-0.004h0.546c0.348,0,0.658,0.012,0.928,0.031    c0.271,0.021,0.519,0.091,0.743,0.211c0.229,0.12,0.412,0.282,0.554,0.487c0.141,0.207,0.21,0.466,0.21,0.777    c0,0.191-0.034,0.365-0.104,0.518c-0.071,0.154-0.164,0.289-0.281,0.407c-0.116,0.116-0.253,0.217-0.41,0.3    c-0.154,0.084-0.319,0.153-0.491,0.212v0.022c0.088,0.047,0.174,0.115,0.258,0.203c0.082,0.088,0.163,0.187,0.241,0.296    c0.137,0.199,0.282,0.413,0.442,0.64c0.157,0.23,0.301,0.434,0.425,0.609c0.192,0.272,0.38,0.47,0.561,0.594    c0.183,0.125,0.396,0.206,0.643,0.242v0.078H91.329L91.329,48.086z M90.556,43.225c-0.131-0.203-0.32-0.365-0.57-0.483    c-0.125-0.058-0.257-0.1-0.395-0.126c-0.139-0.024-0.281-0.038-0.434-0.038c-0.108,0-0.197,0.003-0.264,0.007    c-0.069,0.007-0.12,0.012-0.156,0.016c-0.007,0.032-0.012,0.06-0.017,0.083c-0.005,0.022-0.009,0.052-0.013,0.089    c-0.003,0.036-0.005,0.086-0.008,0.152c-0.003,0.064-0.007,0.157-0.012,0.277c-0.005,0.182-0.01,0.388-0.012,0.616    c-0.003,0.229-0.005,0.449-0.005,0.663v0.563v0.296c0.213,0,0.413-0.009,0.598-0.026c0.185-0.019,0.363-0.057,0.535-0.114    c0.166-0.052,0.311-0.122,0.43-0.21s0.216-0.188,0.292-0.302c0.075-0.112,0.132-0.232,0.168-0.362    c0.037-0.131,0.054-0.266,0.054-0.406C90.75,43.659,90.685,43.427,90.556,43.225"/>
		<path fill="#FAF4EC" d="M96.12,48.086v-0.078c0.016,0,0.054-0.005,0.113-0.015c0.06-0.011,0.122-0.029,0.188-0.055    c0.063-0.026,0.12-0.063,0.171-0.109c0.049-0.048,0.074-0.107,0.074-0.18c0-0.048-0.015-0.124-0.044-0.231    c-0.028-0.106-0.067-0.236-0.12-0.39c-0.052-0.153-0.112-0.324-0.18-0.512c-0.068-0.187-0.14-0.382-0.219-0.585h-2.075    c-0.078,0.198-0.153,0.386-0.227,0.566c-0.073,0.179-0.146,0.359-0.219,0.543c-0.109,0.28-0.163,0.479-0.163,0.593    c0,0.066,0.021,0.122,0.062,0.167c0.043,0.045,0.096,0.081,0.159,0.109c0.066,0.029,0.137,0.051,0.212,0.063    c0.076,0.014,0.147,0.025,0.216,0.035v0.078h-1.664v-0.085c0.135-0.016,0.251-0.051,0.348-0.108    c0.096-0.058,0.151-0.098,0.167-0.117c0.037-0.036,0.098-0.123,0.18-0.259c0.084-0.135,0.185-0.335,0.305-0.601    c0.11-0.244,0.231-0.522,0.367-0.836c0.135-0.312,0.274-0.633,0.418-0.963c0.143-0.33,0.284-0.663,0.425-1    c0.141-0.335,0.273-0.648,0.398-0.941l-0.079-0.17c0.095-0.043,0.179-0.092,0.254-0.148c0.076-0.059,0.141-0.116,0.198-0.18    s0.106-0.123,0.146-0.181c0.039-0.057,0.068-0.104,0.09-0.141h0.062c0.162,0.432,0.315,0.842,0.46,1.229    c0.146,0.387,0.285,0.761,0.418,1.12s0.261,0.705,0.387,1.041c0.124,0.336,0.249,0.668,0.375,0.996    c0.056,0.161,0.109,0.294,0.159,0.402c0.051,0.105,0.105,0.227,0.167,0.362c0.012,0.021,0.036,0.058,0.071,0.109    c0.037,0.053,0.086,0.105,0.146,0.16s0.134,0.103,0.221,0.145c0.09,0.042,0.192,0.065,0.313,0.071v0.092L96.12,48.086    L96.12,48.086z M95.772,45.066c-0.092-0.234-0.181-0.459-0.266-0.676c-0.084-0.216-0.164-0.414-0.233-0.594    c-0.072-0.18-0.13-0.326-0.176-0.441c-0.031,0.067-0.078,0.176-0.138,0.321c-0.059,0.145-0.134,0.32-0.222,0.529    c-0.088,0.208-0.186,0.444-0.293,0.707c-0.106,0.262-0.222,0.548-0.348,0.854h1.943C95.953,45.533,95.863,45.301,95.772,45.066     M94.973,42.154L94.887,42.1l1.062-1.303c0.115,0,0.203,0.023,0.267,0.069c0.062,0.048,0.104,0.092,0.131,0.134v0.039    L94.973,42.154z"/>
		<path fill="#FAF4EC" d="M104.287,42.693c-0.116,0.074-0.207,0.186-0.27,0.336c-0.035,0.077-0.059,0.222-0.069,0.434    c-0.012,0.21-0.021,0.435-0.031,0.675c-0.012,0.224-0.02,0.488-0.027,0.793c-0.008,0.304-0.013,0.631-0.013,0.979v0.499    c0,0.182,0.002,0.368,0.005,0.557c0.001,0.19,0.003,0.38,0.003,0.565v0.509c0,0.021-0.006,0.038-0.019,0.051    s-0.032,0.02-0.059,0.02c-0.042,0-0.087-0.026-0.141-0.078c-0.442-0.511-0.845-0.979-1.209-1.405    c-0.364-0.427-0.712-0.833-1.042-1.221c-0.332-0.389-0.654-0.768-0.973-1.137c-0.316-0.368-0.652-0.752-1.007-1.146v3.292    c0,0.267,0.007,0.506,0.02,0.719s0.046,0.371,0.098,0.477c0.057,0.119,0.146,0.209,0.27,0.269c0.122,0.061,0.29,0.104,0.503,0.13    v0.079h-1.92v-0.079c0.125-0.016,0.249-0.048,0.375-0.098c0.125-0.05,0.223-0.132,0.296-0.246c0.073-0.111,0.12-0.271,0.141-0.484    s0.037-0.469,0.048-0.766c0.011-0.223,0.018-0.486,0.023-0.791c0.005-0.305,0.008-0.631,0.008-0.979V44.27V43.98v-0.287    c0-0.105-0.003-0.232-0.008-0.383c-0.017-0.151-0.052-0.275-0.109-0.371c-0.058-0.097-0.125-0.172-0.203-0.227    c-0.078-0.054-0.163-0.093-0.254-0.116s-0.179-0.041-0.263-0.051v-0.078h1.587l3.698,4.324v-2.654    c0-0.207-0.002-0.407-0.008-0.598c-0.005-0.188-0.028-0.339-0.07-0.447c-0.052-0.147-0.145-0.266-0.276-0.356    c-0.133-0.09-0.325-0.153-0.575-0.19v-0.078h1.936v0.078C104.56,42.572,104.405,42.62,104.287,42.693"/>
		<path fill="#FAF4EC" d="M110.075,48.086h-4.777v-0.077c0.13-0.021,0.252-0.055,0.363-0.103c0.113-0.046,0.204-0.111,0.277-0.194    c0.026-0.031,0.047-0.078,0.062-0.137c0.018-0.061,0.03-0.129,0.045-0.206c0.012-0.079,0.021-0.161,0.026-0.247    s0.008-0.171,0.008-0.253c0-0.074,0.002-0.172,0.004-0.298c0.004-0.124,0.005-0.262,0.008-0.409    c0.004-0.148,0.004-0.301,0.004-0.457v-0.453V43.73c0-0.093,0-0.188-0.004-0.288c-0.003-0.099-0.008-0.192-0.016-0.281    c-0.007-0.087-0.021-0.168-0.039-0.237c-0.018-0.07-0.043-0.121-0.074-0.152c-0.078-0.083-0.161-0.136-0.249-0.159    c-0.089-0.023-0.203-0.047-0.345-0.068v-0.077h4.31l0.531,1.289l-0.079,0.038c-0.421-0.524-0.816-0.879-1.187-1.061    c-0.088-0.043-0.252-0.079-0.491-0.111c-0.24-0.03-0.531-0.047-0.874-0.047c-0.11,0-0.223,0.005-0.341,0.013    c-0.117,0.008-0.2,0.017-0.253,0.026c-0.011,0.084-0.019,0.255-0.026,0.516c-0.009,0.259-0.013,0.563-0.013,0.906v0.499    c0,0.135,0.002,0.246,0.004,0.332s0.004,0.152,0.004,0.198v0.086h0.155c0.08,0,0.168-0.004,0.27-0.008    c0.102-0.005,0.204-0.012,0.305-0.019c0.103-0.01,0.186-0.021,0.254-0.036c0.155-0.037,0.285-0.085,0.391-0.148    c0.104-0.063,0.188-0.138,0.252-0.227c0.065-0.088,0.118-0.19,0.157-0.309c0.038-0.117,0.074-0.249,0.104-0.394h0.095v2.459    h-0.095c-0.041-0.167-0.104-0.339-0.19-0.515c-0.087-0.178-0.177-0.311-0.271-0.399c-0.082-0.072-0.183-0.132-0.299-0.18    c-0.117-0.046-0.254-0.075-0.411-0.085c-0.079-0.006-0.144-0.01-0.195-0.013c-0.052-0.002-0.104-0.004-0.156-0.004h-0.154h-0.203    c-0.012,0.074-0.017,0.181-0.017,0.32v0.438v0.233v0.266c0,0.084,0.002,0.163,0.004,0.239c0.003,0.075,0.005,0.139,0.005,0.19    c0.005,0.167,0.014,0.324,0.027,0.472c0.013,0.15,0.042,0.259,0.089,0.332c0.046,0.073,0.158,0.125,0.335,0.156    c0.178,0.031,0.37,0.048,0.579,0.048c0.087,0,0.201-0.003,0.34-0.009c0.137-0.005,0.281-0.018,0.433-0.039    c0.167-0.021,0.319-0.061,0.461-0.121c0.141-0.06,0.275-0.145,0.405-0.254c0.131-0.108,0.256-0.243,0.379-0.401    s0.248-0.35,0.379-0.574l0.086,0.023L110.075,48.086z"/>
		<path fill="#FAF4EC" d="M116.374,46.394c-0.157,0.354-0.369,0.66-0.637,0.921c-0.269,0.259-0.58,0.46-0.937,0.6    c-0.356,0.142-0.735,0.211-1.137,0.211c-0.395,0-0.77-0.068-1.122-0.206c-0.355-0.138-0.665-0.333-0.93-0.586    c-0.267-0.251-0.477-0.554-0.629-0.905c-0.153-0.353-0.23-0.737-0.23-1.159c0-0.447,0.081-0.849,0.243-1.206    c0.161-0.355,0.378-0.657,0.651-0.905c0.273-0.247,0.592-0.438,0.959-0.569c0.367-0.134,0.753-0.199,1.16-0.199    c0.441,0,0.839,0.078,1.189,0.233c0.352,0.156,0.648,0.366,0.894,0.629c0.245,0.262,0.433,0.564,0.563,0.909    c0.13,0.344,0.195,0.703,0.195,1.077C116.607,45.652,116.529,46.038,116.374,46.394 M115.519,44.285    c-0.082-0.322-0.203-0.615-0.367-0.877c-0.164-0.263-0.369-0.477-0.612-0.641c-0.246-0.163-0.533-0.247-0.867-0.247    c-0.337,0-0.63,0.082-0.877,0.247c-0.247,0.164-0.45,0.376-0.609,0.636c-0.158,0.261-0.276,0.555-0.351,0.887    c-0.075,0.331-0.114,0.664-0.114,1.004c0,0.353,0.043,0.693,0.125,1.021c0.083,0.327,0.208,0.617,0.37,0.866    c0.165,0.249,0.371,0.451,0.617,0.601c0.247,0.15,0.534,0.227,0.862,0.227s0.613-0.082,0.854-0.249    c0.242-0.166,0.445-0.38,0.606-0.644c0.161-0.265,0.28-0.56,0.362-0.887c0.081-0.327,0.12-0.655,0.12-0.982    C115.64,44.928,115.6,44.608,115.519,44.285"/>
	</g>
</g>
</svg>